REM DIRINDEX 1\2,1\3,1\4,1\5,1\6
REM DIRNAME cjc030,folder01,folder02,folder03,folder04,folder05
TITLE ""
FILE "Disc1Track57.mp3" MP3
  TRACK 01 AUDIO
    TITLE "3:cjc030_01397"
    INDEX 01 00:00:00
  TRACK 02 AUDIO
    TITLE "0:"
    INDEX 01 00:01:07
  TRACK 03 AUDIO
    TITLE "4:cjc030_01398"
    INDEX 01 00:01:19
  TRACK 04 AUDIO
    TITLE "0:"
    INDEX 01 00:03:15
  TRACK 05 AUDIO
    TITLE "5:cjc030_01399"
    INDEX 01 00:03:27
  TRACK 06 AUDIO
    TITLE "0:"
    INDEX 01 00:04:38
  TRACK 07 AUDIO
    TITLE "6:cjc030_01400"
    INDEX 01 00:04:52
  TRACK 08 AUDIO
    TITLE "0:"
    INDEX 01 00:10:25
  TRACK 09 AUDIO
    TITLE "3:cjc030_01401"
    INDEX 01 00:10:74
  TRACK 10 AUDIO
    TITLE "0:"
    INDEX 01 00:12:30
  TRACK 11 AUDIO
    TITLE "4:cjc030_01402"
    INDEX 01 00:12:40
  TRACK 12 AUDIO
    TITLE "0:"
    INDEX 01 00:13:53
  TRACK 13 AUDIO
    TITLE "5:cjc030_01403"
    INDEX 01 00:13:61
  TRACK 14 AUDIO
    TITLE "0:"
    INDEX 01 00:15:19
  TRACK 15 AUDIO
    TITLE "3:cjc030_01404"
    INDEX 01 00:15:72
  TRACK 16 AUDIO
    TITLE "0:"
    INDEX 01 00:17:14
  TRACK 17 AUDIO
    TITLE "4:cjc030_01405"
    INDEX 01 00:17:23
  TRACK 18 AUDIO
    TITLE "0:"
    INDEX 01 00:19:62
  TRACK 19 AUDIO
    TITLE "5:cjc030_01406"
    INDEX 01 00:19:71
  TRACK 20 AUDIO
    TITLE "0:"
    INDEX 01 00:21:11
  TRACK 21 AUDIO
    TITLE "6:cjc030_01407"
    INDEX 01 00:21:23
  TRACK 22 AUDIO
    TITLE "0:"
    INDEX 01 00:25:27
  TRACK 23 AUDIO
    TITLE "3:cjc030_01408"
    INDEX 01 00:26:01
  TRACK 24 AUDIO
    TITLE "0:"
    INDEX 01 00:27:24
  TRACK 25 AUDIO
    TITLE "4:cjc030_01409"
    INDEX 01 00:27:30
  TRACK 26 AUDIO
    TITLE "0:"
    INDEX 01 00:30:48
  TRACK 27 AUDIO
    TITLE "5:cjc030_01410"
    INDEX 01 00:30:55
  TRACK 28 AUDIO
    TITLE "0:"
    INDEX 01 00:32:03
  TRACK 29 AUDIO
    TITLE "6:cjc030_01411"
    INDEX 01 00:32:15
  TRACK 30 AUDIO
    TITLE "0:"
    INDEX 01 00:36:36
  TRACK 31 AUDIO
    TITLE "3:cjc030_01412"
    INDEX 01 00:37:10
  TRACK 32 AUDIO
    TITLE "0:"
    INDEX 01 00:38:20
  TRACK 33 AUDIO
    TITLE "4:cjc030_01413"
    INDEX 01 00:38:28
  TRACK 34 AUDIO
    TITLE "0:"
    INDEX 01 00:41:32
  TRACK 35 AUDIO
    TITLE "5:cjc030_01414"
    INDEX 01 00:41:40
  TRACK 36 AUDIO
    TITLE "0:"
    INDEX 01 00:42:49
  TRACK 37 AUDIO
    TITLE "3:cjc030_01415"
    INDEX 01 00:43:25
  TRACK 38 AUDIO
    TITLE "0:"
    INDEX 01 00:44:54
  TRACK 39 AUDIO
    TITLE "4:cjc030_01416"
    INDEX 01 00:44:63
  TRACK 40 AUDIO
    TITLE "0:"
    INDEX 01 00:45:61
  TRACK 41 AUDIO
    TITLE "5:cjc030_01417"
    INDEX 01 00:45:69
  TRACK 42 AUDIO
    TITLE "0:"
    INDEX 01 00:47:21
  TRACK 43 AUDIO
    TITLE "6:cjc030_01418"
    INDEX 01 00:47:36
  TRACK 44 AUDIO
    TITLE "0:"
    INDEX 01 00:52:10
  TRACK 45 AUDIO
    TITLE "3:cjc030_01419"
    INDEX 01 00:52:59
  TRACK 46 AUDIO
    TITLE "0:"
    INDEX 01 00:54:11
  TRACK 47 AUDIO
    TITLE "4:cjc030_01420"
    INDEX 01 00:54:19
  TRACK 48 AUDIO
    TITLE "0:"
    INDEX 01 00:57:50
  TRACK 49 AUDIO
    TITLE "5:cjc030_01421"
    INDEX 01 00:57:58
  TRACK 50 AUDIO
    TITLE "0:"
    INDEX 01 00:59:10
  TRACK 51 AUDIO
    TITLE "6:cjc030_01422"
    INDEX 01 00:59:26
  TRACK 52 AUDIO
    TITLE "0:"
    INDEX 01 01:04:00
  TRACK 53 AUDIO
    TITLE "3:cjc030_01423"
    INDEX 01 01:04:47
  TRACK 54 AUDIO
    TITLE "0:"
    INDEX 01 01:06:14
  TRACK 55 AUDIO
    TITLE "4:cjc030_01424"
    INDEX 01 01:06:22
  TRACK 56 AUDIO
    TITLE "0:"
    INDEX 01 01:08:05
  TRACK 57 AUDIO
    TITLE "5:cjc030_01425"
    INDEX 01 01:08:13
  TRACK 58 AUDIO
    TITLE "0:"
    INDEX 01 01:09:57
  TRACK 59 AUDIO
    TITLE "3:cjc030_01426"
    INDEX 01 01:10:37
  TRACK 60 AUDIO
    TITLE "0:"
    INDEX 01 01:11:60
  TRACK 61 AUDIO
    TITLE "4:cjc030_01427"
    INDEX 01 01:11:70
  TRACK 62 AUDIO
    TITLE "0:"
    INDEX 01 01:13:18
  TRACK 63 AUDIO
    TITLE "5:cjc030_01428"
    INDEX 01 01:13:24
  TRACK 64 AUDIO
    TITLE "0:"
    INDEX 01 01:14:49
  TRACK 65 AUDIO
    TITLE "6:cjc030_01429"
    INDEX 01 01:14:63
  TRACK 66 AUDIO
    TITLE "0:"
    INDEX 01 01:18:53
